<?xml version="1.0" encoding="utf-8"?>
<!-- Generator: Adobe Illustrator 24.0.0, SVG Export Plug-In . SVG Version: 6.00 Build 0)  -->
<svg version="1.1" id="Calque_1" xmlns="http://www.w3.org/2000/svg" xmlns:xlink="http://www.w3.org/1999/xlink" x="0px" y="0px"
	 viewBox="0 0 34 34" style="enable-background:new 0 0 34 34;" xml:space="preserve">
<style type="text/css">
	.st0{fill:#FFFFFF;}
</style>
<title>ai</title>
<path class="st0" d="M32.3,1.7v30.6H1.7V1.7H32.3 M34,0H0v34h34V0z"/>
<path class="st0" d="M18.2,21.1h-6.4l-1.3,3H8l5.8-12.9h2.3L22,24.1h-2.5L18.2,21.1z M17.4,19.2L15,13.6l-2.4,5.6H17.4z"/>
<path class="st0" d="M23.5,12.3c-0.6-0.5-0.6-1.4-0.1-1.9c0,0,0.1-0.1,0.1-0.1c0.3-0.3,0.7-0.4,1-0.4c0.4,0,0.7,0.1,1,0.4
	c0.3,0.2,0.4,0.6,0.4,0.9c0,0.4-0.1,0.7-0.4,1c-0.3,0.3-0.6,0.4-1,0.4C24.2,12.6,23.8,12.5,23.5,12.3z M23.4,14.3h2.3v9.8h-2.3
	L23.4,14.3z"/>
</svg>
