<?xml version="1.0" encoding="utf-8"?>
<!-- Generator: Adobe Illustrator 24.0.0, SVG Export Plug-In . SVG Version: 6.00 Build 0)  -->
<svg version="1.1" id="Calque_1" focusable="false" xmlns="http://www.w3.org/2000/svg" xmlns:xlink="http://www.w3.org/1999/xlink"
	 x="0px" y="0px" viewBox="0 0 15 8.7" style="enable-background:new 0 0 15 8.7;" xml:space="preserve">
<style type="text/css">
	.st0{display:none;fill:#ECF0F1;}
	.st1{fill:#FFFFFF;}
	.st2{display:none;fill:none;stroke:#000000;stroke-width:3;stroke-linecap:round;stroke-miterlimit:10;}
</style>
<path class="st0" d="M7.3,20.9c-0.4,0-0.9-0.2-1.2-0.5l-5.5-5.5c-0.4-0.4-0.4-1,0-1.4s1-0.4,1.4,0l5.3,5.3l5.3-5.3
	c0.4-0.4,1-0.4,1.4,0s0.4,1,0,1.4l-5.5,5.5C8.2,20.8,7.8,20.9,7.3,20.9z"/>
<path class="st1" d="M7.5,8.7C6.9,8.7,6.4,8.5,5.9,8L0.4,2.6C-0.1,2-0.1,1,0.4,0.4C1-0.1,2-0.1,2.6,0.4l4.9,4.9l4.9-4.9
	c0.6-0.6,1.5-0.6,2.1,0s0.6,1.5,0,2.1L9.1,8.1C8.6,8.5,8.1,8.7,7.5,8.7z"/>
<path class="st2" d="M-7.1,3.1l-5.5,5.5c-0.3,0.3-0.7,0.3-1,0l0,0l-5.5-5.5"/>
</svg>
