<?xml version="1.0" encoding="utf-8"?>
<!-- Generator: Adobe Illustrator 24.0.0, SVG Export Plug-In . SVG Version: 6.00 Build 0)  -->
<svg version="1.1" id="Capa_1" xmlns="http://www.w3.org/2000/svg" xmlns:xlink="http://www.w3.org/1999/xlink" x="0px" y="0px"
	 viewBox="0 0 512 512" style="enable-background:new 0 0 512 512;" xml:space="preserve">
<style type="text/css">
	.st0{fill:#FFFFFF;}
</style>
<title>down-arrow</title>
<path class="st0" d="M256,0C114.6,0,0,114.6,0,256s114.6,256,256,256s256-114.6,256-256S397.4,0,256,0z M256,464
	c-114.7,0-208-93.3-208-208S141.3,48,256,48s208,93.3,208,208S370.7,464,256,464z M344,192c-6.7,0-13.1,2.8-17.6,7.8h-0.1L256,276.5
	l-70.3-76.7h-0.1c-4.5-5-10.9-7.8-17.6-7.8c-13.2,0-24,10.8-24,24c0,6,2.3,11.8,6.4,16.2h-0.1l88,96c4.6,4.9,11,7.8,17.7,7.8
	c6.7,0,13.2-2.8,17.7-7.8l88-96h-0.1c9-9.7,8.4-24.8-1.2-33.8C355.9,194.3,350.1,192,344,192z"/>
</svg>
