<?xml version="1.0" encoding="utf-8"?>
<!-- Generator: Adobe Illustrator 24.0.0, SVG Export Plug-In . SVG Version: 6.00 Build 0)  -->
<svg version="1.1" id="Calque_1" xmlns="http://www.w3.org/2000/svg" xmlns:xlink="http://www.w3.org/1999/xlink" x="0px" y="0px"
	 viewBox="0 0 34 34" style="enable-background:new 0 0 34 34;" xml:space="preserve">
<style type="text/css">
	.st0{fill:#FFFFFF;}
</style>
<title>id</title>
<path class="st0" d="M9.2,10.7h2.4V24H9.2V10.7z"/>
<path class="st0" d="M24.9,9.9V24h-2.3v-1.3c-0.4,0.5-0.9,0.8-1.5,1.1c-0.6,0.2-1.2,0.4-1.9,0.4c-0.9,0-1.8-0.2-2.6-0.6
	c-0.8-0.4-1.4-1.1-1.8-1.8c-0.5-0.8-0.7-1.8-0.7-2.7c0-0.9,0.2-1.9,0.7-2.7c0.4-0.8,1.1-1.4,1.8-1.8c0.8-0.4,1.7-0.7,2.6-0.6
	c0.6,0,1.3,0.1,1.8,0.3c0.5,0.2,1,0.6,1.4,1V9.9H24.9z M21.1,21.7c0.5-0.3,0.8-0.6,1.1-1.1c0.3-0.5,0.4-1.1,0.4-1.7
	c0-0.6-0.1-1.2-0.4-1.7c-0.3-0.5-0.6-0.8-1.1-1.1c-1-0.5-2.1-0.5-3.1,0c-0.5,0.3-0.8,0.6-1.1,1.1c-0.3,0.5-0.4,1.1-0.4,1.7
	c0,0.6,0.1,1.1,0.4,1.7c0.3,0.5,0.6,0.8,1.1,1.1C19,22.2,20.1,22.2,21.1,21.7L21.1,21.7z"/>
<path class="st0" d="M32.3,1.7v30.6H1.7V1.7H32.3 M34,0H0v34h34V0z"/>
</svg>
