<?xml version="1.0" encoding="utf-8"?>
<!-- Generator: Adobe Illustrator 24.0.0, SVG Export Plug-In . SVG Version: 6.00 Build 0)  -->
<svg version="1.1" id="Calque_1" xmlns="http://www.w3.org/2000/svg" xmlns:xlink="http://www.w3.org/1999/xlink" x="0px" y="0px"
	 viewBox="0 0 566.9 566.9" style="enable-background:new 0 0 566.9 566.9;" xml:space="preserve">
<style type="text/css">
	.st0{fill:#FFFFFF;}
</style>
<g>
	<path class="st0" d="M283.7,538.6l-2.1-2.1L28.3,283.7L283.2,28.3l255.4,254.9L283.7,538.6z M36.5,283.7l247.2,246.7l246.7-247.2
		L283.2,36.5L36.5,283.7z"/>
	<g>
		<path class="st0" d="M319.7,235.8l-8.9-61.3l-69.9,171.9h-7.6L165,173.6l-26.2,166.8h-27.2l43.6-225.9h9.2l75.1,182.9l73.6-182.9
			h9.2l20.1,108.3C342.4,222.8,330.3,227,319.7,235.8"/>
		<path class="st0" d="M453.8,438.8c-10.3,4.4-20.7,7.7-31.3,10.1c-10.6,2.4-21.3,3.6-32.2,3.6c-15.2,0-29.8-2.5-43.6-7.4
			c-13.9-4.9-26.5-12.5-38-22.6c-23.4-23.7-35-51.8-35-84c0-21,4.6-39,13.8-54c9.2-15,18.2-26.6,27-34.6s17.2-13.7,25.2-16.9
			c8-3.3,14.6-5.5,19.6-6.7s10.2-2.1,15.4-2.7c5.2-0.6,10.3-0.9,15.3-0.9c7.3,0,15,0.6,23.2,1.9c8.1,1.3,16.2,3.1,24.3,5.5l16.3,7.4
			v29.1c-18.4-13.1-38.6-19.6-60.6-19.6c-14.8,0-28.7,3-41.6,9.1c-12.9,6-23.9,15.3-33.3,27.8c-5.3,7.9-9.5,16.5-12.3,25.8
			c-2.9,9.3-4.3,18.8-4.3,28.5c0,16.8,4.2,32.6,12.6,47.4s20,25.8,34.7,33.3c14.7,7.4,29.7,11.1,45,11.1c16.4,0,31.2-4.1,44.2-12.2
			l15.4-9.8v30.8H453.8z"/>
		<path class="st0" d="M350.7,266.1l13,74.3h-28.8l-7.3-56.6C338.1,272.2,350.7,266.1,350.7,266.1"/>
	</g>
</g>
</svg>
