<?xml version="1.0" encoding="utf-8"?>
<!-- Generator: Adobe Illustrator 24.0.0, SVG Export Plug-In . SVG Version: 6.00 Build 0)  -->
<svg version="1.1" id="Calque_1" focusable="false" xmlns="http://www.w3.org/2000/svg" xmlns:xlink="http://www.w3.org/1999/xlink"
	 x="0px" y="0px" viewBox="0 0 320 512" style="enable-background:new 0 0 320 512;" xml:space="preserve">
<style type="text/css">
	.st0{fill:#3498DB;}
</style>
<path class="st0" d="M30,48.2l244,250.9h-77.9h-44.7l17,41.4L220,466.2L193,478l-48.3-117.7L127.3,318l-31.9,32.8L30,418.1V48.2
	 M18.1,0C9.1,0,0,7.2,0,18.3V448c0,10.6,8.7,18.3,17.9,18.3c4.3,0,8.7-1.7,12.3-5.4l86.7-89.1l53.1,129c2.9,6.9,9.5,11.2,16.4,11.2
	c2.3,0,4.6-0.5,6.9-1.5l49.2-21.4c8.9-4,13.3-14.6,9.4-24l-55.8-136h106.1l0,0c15.5,0,24-20,12.5-31.1L30.3,5.4
	C26.9,1.7,22.5,0,18.1,0L18.1,0z"/>
</svg>
