<?xml version="1.0" encoding="utf-8"?>
<!-- Generator: Adobe Illustrator 24.0.0, SVG Export Plug-In . SVG Version: 6.00 Build 0)  -->
<svg version="1.1" id="Calque_1" xmlns="http://www.w3.org/2000/svg" xmlns:xlink="http://www.w3.org/1999/xlink" x="0px" y="0px"
	 viewBox="0 0 34 34" style="enable-background:new 0 0 34 34;" xml:space="preserve">
<style type="text/css">
	.st0{fill:#FFFFFF;}
</style>
<title>ps</title>
<path class="st0" d="M14.7,10.5c0.8,0.4,1.6,1,2.1,1.7c0.5,0.8,0.7,1.7,0.7,2.7c0,0.9-0.2,1.9-0.7,2.7c-0.5,0.8-1.2,1.4-2.1,1.7
	c-1,0.4-2.1,0.6-3.2,0.6H8.4V24H5.8V10h5.8C12.6,9.9,13.7,10.1,14.7,10.5z M14,17c0.6-0.5,0.9-1.3,0.9-2.1c0.1-0.8-0.3-1.6-0.9-2.1
	c-0.8-0.5-1.7-0.8-2.6-0.7h-3v5.6h3C12.3,17.8,13.2,17.5,14,17z"/>
<path class="st0" d="M20.9,23.8c-0.7-0.2-1.4-0.5-2-0.9l1-1.9c0.5,0.3,1.1,0.6,1.7,0.8c0.7,0.2,1.3,0.3,2,0.3c1.5,0,2.2-0.4,2.2-1.2
	c0-0.4-0.2-0.7-0.6-0.8c-0.6-0.2-1.2-0.3-1.8-0.4c-0.7-0.1-1.4-0.2-2.1-0.5c-0.6-0.2-1.1-0.5-1.5-0.9c-0.4-0.5-0.6-1.2-0.6-1.8
	c0-1,0.4-1.9,1.2-2.5c1-0.7,2.2-1,3.4-0.9c0.7,0,1.5,0.1,2.2,0.2c0.6,0.1,1.2,0.4,1.8,0.7l-1,1.9c-0.9-0.5-2-0.8-3.1-0.8
	c-0.6,0-1.2,0.1-1.7,0.3c-0.3,0.2-0.6,0.5-0.6,0.9c0,0.4,0.2,0.7,0.6,0.9c0.6,0.2,1.2,0.4,1.9,0.5c0.7,0.1,1.4,0.3,2.1,0.5
	c0.5,0.2,1,0.5,1.4,0.9c0.4,0.5,0.6,1.1,0.6,1.8c0,1-0.5,1.9-1.3,2.4c-1.1,0.7-2.3,1-3.5,0.9C22.5,24.1,21.7,24,20.9,23.8z"/>
<path class="st0" d="M32.3,1.7v30.6H1.7V1.7H32.3 M34,0H0v34h34V0z"/>
</svg>
